<?xml version="1.0"?><svg version="1.1" id="Layer_1" xmlns="http://www.w3.org/2000/svg" x="0" y="0" viewBox="0 0 100 100" xml:space="preserve"><path id="XMLID_189_" d="M50 25.93c.53 0 1.061.213 1.451.638L84.612 52.41h5.916c1.713 0 2.608-2.036 1.451-3.298L51.451 15.235A1.961 1.961 0 0 0 50 14.597c-.53 0-1.061.213-1.451.638L8.021 49.112c-1.157 1.262-.262 3.298 1.451 3.298h5.916l33.161-25.842c.39-.425.921-.638 1.451-.638z" fill="#323232"/><path id="XMLID_188_" d="M50 58.923c.53 0 1.061.213 1.451.638l33.161 25.842h5.916c1.713 0 2.608-2.036 1.451-3.298L51.451 48.228A1.961 1.961 0 0 0 50 47.59c-.53 0-1.061.213-1.451.638L8.021 82.104c-1.157 1.262-.262 3.298 1.451 3.298h5.916L48.549 59.56c.39-.424.921-.637 1.451-.637z" fill="#cccccb"/><metadata xmlns:d="https://loading.io/stock/">
<d:name>up</d:name>
<d:tags>north,upload,top,direction,way,dart,chevron,up,arrow</d:tags>
<d:license>by</d:license>
<d:slug>iei9vt</d:slug>
</metadata></svg>